<svg xmlns="http://www.w3.org/2000/svg" width="980" height="420" viewBox="0 0 980 420">
  <defs>
    <marker id="arrow" markerWidth="10" markerHeight="10" refX="10" refY="5" orient="auto" markerUnits="strokeWidth">
      <path d="M 0 0 L 10 5 L 0 10 z" fill="#64748b" />
    </marker>
  </defs>
  <style>
    .box { fill:#f8fafc; stroke:#64748b; stroke-width:1.5; rx:8; }
    .box2 { fill:#eef7f1; stroke:#4b7b59; stroke-width:1.5; rx:8; }
    .txt { font-family: Arial, sans-serif; font-size:12px; fill:#0f172a; }
    .line { stroke:#64748b; stroke-width:1.5; }
  </style>

  <rect class="box" x="400" y="20" width="180" height="48" />
  <text class="txt" x="490" y="48" text-anchor="middle">System</text>

  <rect class="box" x="120" y="100" width="200" height="48" />
  <text class="txt" x="220" y="128" text-anchor="middle">Backend</text>

  <rect class="box" x="390" y="100" width="200" height="48" />
  <text class="txt" x="490" y="128" text-anchor="middle">Frontend</text>

  <rect class="box" x="660" y="100" width="200" height="48" />
  <text class="txt" x="760" y="128" text-anchor="middle">Storage</text>

  <line class="line" x1="490" y1="68" x2="220" y2="100" />
  <line class="line" x1="490" y1="68" x2="490" y2="100" />
  <line class="line" x1="490" y1="68" x2="760" y2="100" />

  <rect class="box2" x="90" y="190" width="140" height="40" />
  <text class="txt" x="160" y="214" text-anchor="middle">main.py</text>

  <rect class="box2" x="250" y="190" width="140" height="40" />
  <text class="txt" x="320" y="214" text-anchor="middle">pipeline.py</text>

  <rect class="box2" x="90" y="250" width="140" height="40" />
  <text class="txt" x="160" y="274" text-anchor="middle">agents.py</text>

  <rect class="box2" x="250" y="250" width="140" height="40" />
  <text class="txt" x="320" y="274" text-anchor="middle">tools.py</text>

  <line class="line" x1="220" y1="148" x2="160" y2="190" />
  <line class="line" x1="220" y1="148" x2="320" y2="190" />
  <line class="line" x1="220" y1="148" x2="160" y2="250" />
  <line class="line" x1="220" y1="148" x2="320" y2="250" />

  <rect class="box2" x="380" y="190" width="220" height="40" />
  <text class="txt" x="490" y="214" text-anchor="middle">ResearchPage.tsx</text>

  <rect class="box2" x="380" y="240" width="220" height="40" />
  <text class="txt" x="490" y="264" text-anchor="middle">hooks.ts</text>

  <rect class="box2" x="380" y="290" width="220" height="40" />
  <text class="txt" x="490" y="314" text-anchor="middle">lib.ts</text>

  <line class="line" x1="490" y1="148" x2="490" y2="190" />
  <line class="line" x1="490" y1="148" x2="490" y2="240" />
  <line class="line" x1="490" y1="148" x2="490" y2="290" />

  <rect class="box2" x="640" y="190" width="240" height="40" />
  <text class="txt" x="760" y="214" text-anchor="middle">Supabase search_history</text>

  <rect class="box2" x="640" y="240" width="240" height="40" />
  <text class="txt" x="760" y="264" text-anchor="middle">localStorage</text>

  <line class="line" x1="760" y1="148" x2="760" y2="190" />
  <line class="line" x1="760" y1="148" x2="760" y2="240" />
</svg>
